<svg width="271" height="271" viewBox="0 0 271 271" fill="none" xmlns="http://www.w3.org/2000/svg">
<path fill-rule="evenodd" clip-rule="evenodd" d="M270.99 270.99H156.361L156.493 270.275C158.268 270.053 160.136 270.024 161.898 269.761C164.299 269.403 167.75 268.217 169.906 268.094C170.447 268.063 171.644 268.407 171.707 268.34C171.76 268.279 171.58 267.794 171.853 267.591C172.125 267.388 174.663 266.755 174.847 266.89L174.607 267.252L172.435 267.852C173.666 268.245 174.82 267.755 176.057 267.61L175.817 266.411C177.228 266.295 179.367 264.884 180.587 264.753C181.149 264.693 181.582 264.989 181.973 264.953C182.9 264.866 185.341 264.748 185.11 263.499L181.372 264.707L183.256 263.573L198.757 259.878L198.781 258.918L199.481 258.425L196.943 259.146L196.827 258.669C198.822 257.533 201.039 256.702 203.026 255.566C205.864 253.947 208.778 251.11 211.792 250.575L216.03 247.793L216.388 247.909C214.053 249.666 211.744 252.081 209.223 253.548C208.508 253.963 207.771 254.048 207.148 254.372C206.291 254.817 205.398 255.655 204.4 255.986L203.712 255.524L200.933 256.978L202.862 256.971L199.967 258.421L202.379 257.818L201.898 258.421C202.674 258.351 203.702 257.862 204.376 257.461C204.68 257.28 204.75 256.786 205.434 256.501C205.999 256.264 206.337 256.479 206.564 256.404C208.168 255.882 208.438 253.927 210.104 253.456C214.405 252.24 216.373 248.774 219.273 245.719C220.64 244.281 222.244 243.044 223.63 241.62V241.26L222.785 241.982L222.667 241.625L229.819 233.196L230.39 231.592C230.29 231.841 228.764 233.175 229.187 232.198C229.302 231.932 229.928 231.58 230.134 231.188C230.407 230.666 229.989 229.919 230.875 229.658L230.995 230.622C231.418 229.974 232.063 229.59 232.377 228.855C232.691 228.121 232.114 227.683 233.647 227.231C234.073 225.866 236.059 224.21 236.429 223.004C236.868 221.571 235.026 224.078 234.944 224.177C234.766 224.392 234.465 224.957 234.504 224.223C237.861 219.439 241.165 214.632 243.913 209.462C244.196 209.017 244.478 209.2 244.881 209.353L244.403 208.512L248.742 201.256L248.267 200.894L246.451 204.274C245.915 204.185 247.765 201.914 246.697 202.588C246.404 203.168 241.836 212.693 241.505 212.253L241.5 211.889C248.39 198.467 254.669 185.229 259.062 170.731C262.508 159.357 264.736 147.562 264.93 135.634C265.352 135.576 265.157 136.183 265.169 136.476C265.302 139.748 265.01 143.021 264.688 146.267C265.038 146.314 265.058 145.612 265.102 145.355C265.551 142.706 265.63 139.777 265.654 137.084C267.216 137.362 265.186 138.663 266.374 139.494L265.886 139.622C266.832 140.847 265.942 140.686 265.93 140.816C265.901 141.128 266.099 141.921 266.067 142.457C265.188 157.844 259.916 172.829 254.309 187.249C254.354 188.257 254.789 186.679 255.023 186.875L255.266 187.355L256.478 182.282L256.594 183.73C257.313 182.935 258.122 181.929 258.163 180.832L257.697 180.973C258.187 178.749 259.838 176.296 259.375 174.062L259.854 174.307C259.668 173.572 260.204 173.385 260.312 173.148C261.74 170.018 262.452 165.699 263.372 162.233C264.785 156.914 265.966 150.593 266.615 144.695C266.77 143.291 266.765 141.653 266.861 140.227L267.104 141.674C267.687 141.444 267.69 139.885 267.576 139.424C267.537 139.267 266.828 139.254 267.084 137.939L267.84 137.677C267.367 136.253 267.999 134.817 267.978 133.616C267.953 132.34 267.639 130.568 267.586 129.225C267.501 127.091 267.589 124.951 267.345 122.824L268.066 126.326V130.072C268.508 129.983 268.519 129.599 268.56 129.236C268.84 126.756 268.19 124.102 268.311 121.615C268.649 121.642 268.736 122.705 268.76 122.974C268.832 123.728 269.032 125.263 269.032 125.843V130.314L269.755 129.589L269.774 134.293L269.035 134.428L269.045 135.375L269.774 135.522C269.75 135.999 269.789 136.483 269.755 136.959C269.736 137.242 269.66 138.252 269.276 138.288C268.996 137.524 269.817 136.057 269.035 135.632C268.798 144.079 267.673 152.459 265.649 160.646C265.929 160.976 266.067 160.292 266.11 160.14C266.741 157.972 266.941 155.233 267.646 153.218C267.748 152.925 268.074 152.432 268.06 153.147C266.606 159.221 265.326 165.378 263.551 171.357C263.135 172.754 262.252 174.362 261.854 175.706C261.769 175.989 261.947 176.346 261.862 176.675C261.71 177.262 261.225 177.751 261.305 178.413C261.648 178.406 261.778 177.726 261.896 177.438C264.893 170.139 267.125 161.839 268.479 154.057C268.834 152.017 268.832 149.005 269.322 147.166C269.375 146.97 269.535 146.752 269.752 146.752C269.779 148.524 269.26 150.259 269.101 152.021C269.076 152.29 268.813 152.843 269.27 152.795C269.455 151.316 269.858 149.805 269.998 148.321C270.063 147.652 269.849 147.055 269.888 146.479C270.233 141.416 270.38 135.907 270.981 130.933C271.02 130.618 270.557 126.863 270.479 126.092C270.219 123.462 269.706 120.75 269.334 118.295C268.962 115.839 268.692 113.361 268.258 110.913L267.919 110.541L267.342 110.744V110.017L268.064 110.256L267.337 107.116L266.617 107.6L265.435 103.848L265.886 103.49C266.096 104.225 266.144 105.018 266.422 105.735C266.538 106.035 266.886 106.487 266.859 105.784L264.437 97.6895L263.72 98.1709L262.508 94.3027L261.788 94.5449L262.252 93.7256C260.318 89.2034 258.358 84.7007 255.994 80.3984C255.96 79.6614 256.251 80.2359 256.432 80.4463C257.226 81.3695 257.569 82.3966 258.402 83.1846L257.437 80.2822L256.717 80.5264C257.072 79.0932 255.903 79.6801 255.256 78.9648C254.519 78.1479 253.471 75.3101 252.814 74.1572C251.556 71.953 249.989 69.0552 248.642 67.2158C248.347 66.817 248.288 66.2033 247.781 66.0244C248.725 68.6347 250.399 70.9185 251.764 73.2773C252.044 73.7631 251.45 73.3334 251.401 73.6377C251.553 74.0683 252.104 73.7306 252.123 73.7607C252.193 73.9178 251.918 74.2131 251.949 74.3799C252.007 74.6723 252.503 74.6461 252.575 74.7549C252.6 74.7957 252.356 75.2083 252.488 75.6758C252.759 76.6193 253.508 76.3622 253.577 76.4219C253.654 76.4871 253.111 77.7558 253.853 78.3408C253.988 78.4472 254.57 77.8655 254.777 78.4746C254.598 78.9356 253.725 78.2909 254.104 79.1533C254.309 79.6222 254.761 79.934 255.241 80.0693C254.527 81.367 255.834 81.0438 255.994 81.4229C256.31 82.1794 256.265 83.5307 256.932 84.3018L256.476 84.6348C254.186 79.0878 250.848 74.0872 247.965 68.8545C247.781 68.521 247.871 68.0641 247.707 67.7861C247.521 67.4744 246.381 66.8485 246.571 66.0244C247.346 66.387 247.424 65.712 247.238 64.9941C247.006 64.1015 244.309 59.8134 243.623 58.7012C242.833 57.425 241.952 56.1962 241.013 55.0264C242.188 54.6422 241.066 54.3958 240.767 54.002C240.192 53.2455 239.697 52.3851 239.071 51.6455C238.576 51.0606 237.577 50.9423 238.117 50.0771C237.173 50.285 237.407 49.5769 237.021 49.1201C235.997 47.9068 234.748 46.7658 233.782 45.5332C233.273 44.883 232.386 43.749 232.439 43.0674C232.932 43.2462 233.656 44.6114 233.823 44.7207C233.864 44.7473 234.939 44.8514 234.733 44.3994L223.985 34.6104C223.623 33.2447 225.217 35.8814 225.558 35.2119C224.932 34.6584 224.384 33.924 223.741 33.4043C223.292 33.0393 220.266 31.381 220.761 30.7598L221.213 30.6201C220.672 30.1174 220.194 29.5394 219.646 29.0439C216.158 25.8947 211.375 22.5786 207.178 20.2559C205.553 19.3568 203.509 18.6121 202.229 17.7275C197.431 14.4139 184.669 9.74629 178.89 8.02051C178.653 7.95043 178.597 7.46989 178.17 7.24023C176.697 6.44753 174.543 6.23953 173.031 5.36719C172.341 5.29951 172.821 5.68152 173.069 5.81445C173.538 6.06822 174.089 6.22039 174.605 6.33398C174.675 6.71083 174.258 6.60888 174.019 6.56055C172.529 6.26328 170.896 5.24113 169.298 5.12012C169.658 4.49506 170.882 5.37384 171.469 5.12012L168.57 4.1582L169.051 4.76074L159.15 2.70312L159.266 2.22754L166.393 3.91406C166.58 3.29816 165.371 3.19451 164.943 3.07129C161.833 2.177 157.851 1.50908 154.644 1.05469C152.06 0.687323 149.43 0.433614 146.834 0.291016L147.078 0.769531C145.909 0.750195 144.759 0.912942 143.639 0.511719C143.458 0.448644 143.535 0.0834248 143.103 0.0302734C142.253 -0.0759442 141.197 0.139218 140.313 0.0498047L141.519 0.52832L127.032 1.25293L128.237 0.651367C126.238 0.595776 124.122 0.994603 122.105 1.28223C121.639 1.34748 121.284 1.67095 120.859 1.72656C117.865 2.11328 114.807 2.04331 111.815 2.46387C111.613 3.63612 113.655 2.07519 113.986 2.94531C106.483 3.93143 99.0048 5.3138 91.7217 7.36816C88.0849 8.39538 83.7786 10.3915 80.2939 11.1602C79.6928 11.293 80.0834 10.8901 80.1826 10.6846C79.1469 10.4237 79.4337 11.3373 79.0498 11.666C78.2087 12.3839 74.6281 13.5269 73.4209 13.5801L75.1094 12.4951L73.9043 12.8574L74.2637 12.1318L69.0742 13.5869L69.1924 14.0654L70.1729 13.5869L70.417 14.083C71.0497 13.9718 71.61 13.6764 72.1992 13.4492C72.6217 13.2873 72.9551 13.2032 72.458 13.708L63.2832 17.457C63.2182 17.8798 63.8463 17.7054 64.0732 17.6426C64.7686 17.4467 65.3386 16.8793 66.0557 16.7246C66.5604 17.1742 65.9105 17.1524 65.7148 17.4014C65.5074 17.6674 65.6496 18.3411 64.9736 18.1768L65.457 17.457C65.2421 17.2879 63.5958 18.4815 63.2549 18.7598C63.0038 18.9652 62.6508 18.7646 62.8027 19.3877C63.8024 19.2306 63.8508 19.2962 64.1309 18.4238L64.3633 18.9072L75.2441 13.8262C75.1669 14.9016 76.8261 13.1067 76.8096 14.3096C68.7052 17.3163 60.7384 20.9399 53.501 25.6748L53.0254 25.1914C52.545 25.3847 51.4269 26.9108 51.209 27.0205C50.9391 27.1556 50.5107 26.8533 50.4873 26.8809C50.4366 26.9485 50.5835 27.3664 50.4365 27.543C50.3423 27.6566 49.7674 27.7271 49.4824 27.9277C44.9618 31.1182 40.4314 34.1296 36.2344 37.876C35.5389 38.4947 32.6942 40.9938 32.3633 41.4941C32.216 41.7189 31.9188 42.1707 32.252 42.3496C32.776 41.639 33.5926 41.2403 34.1963 40.6699C34.9062 39.9979 35.522 38.241 36.7197 39.0869C35.3917 40.5732 34.0804 42.0908 32.7451 43.5674C32.3611 43.9928 31.7592 44.1794 31.3994 44.6387C30.8248 45.3735 30.9889 46.6758 29.7646 46.248L27.7871 49.3594L28.5068 48.876V49.2334C27.5505 49.9247 25.9754 53.5649 25.2461 53.9492C25.1371 54.0046 24.8356 53.9967 24.8887 53.8301L27.0596 50.6836L26.9414 50.3262L25.9902 51.3066L19.9336 61.1973C19.4627 61.7121 19.4937 61.3421 19.6748 60.9385C20.8846 58.2364 22.7179 55.8365 23.9688 53.1514C25.5022 51.387 26.6518 49.2571 27.9365 47.4443C28.1905 47.0864 29.5615 46.0691 29.4746 45.6172C29.4069 45.2623 29.1828 45.2744 28.8691 45.4893C28.6205 45.6584 27.384 47.171 27.0674 47.5557C22.2714 53.3879 15.7438 63.8125 13.1768 70.875C13.0174 71.3149 12.9397 72.5888 12.7852 72.7773C12.7256 72.8443 11.7495 72.5348 11.8291 73.875L12.3291 74.126L11.8438 75.707L11.8457 74.501H11.3682C10.7839 75.5523 10.8484 76.8523 10.5225 77.8867C9.46715 81.2367 8.07416 84.5193 7.13477 88.0312C6.48519 90.4579 6.1662 93.8681 5.42969 96.0361C5.1858 96.7612 4.2662 97.1189 4.60645 98.1846L5.08398 97.8174C4.19047 102.825 3.94246 107.991 3.72754 113.091C3.70829 113.55 3.94914 114.024 3.89844 114.5L3.3916 119.573L3.88184 119.556L4.11621 118.729C3.97374 119.771 4.59632 120.941 4.35254 121.946C4.30666 122.142 3.91538 122.012 3.85742 122.459C3.74878 123.3 3.97161 124.373 3.87988 125.253L4.59863 124.772L5.08203 129.604C3.26627 128.854 5.2582 131.288 5.33105 131.675C5.46866 132.419 4.84357 132.229 4.83594 132.402C4.82462 132.688 5.16062 133.211 5.10352 133.632L5.32812 132.509L6.04785 133.231L5.33105 129.964L5.80859 129.846L9.43164 146.281C8.62515 145.953 8.76935 144.937 8.54004 144.154C8.23576 143.108 8.01106 142.169 7.72852 141.099C7.3856 139.803 6.719 138.554 6.77441 137.097C6.34267 137.044 6.54031 137.641 6.56445 137.911C6.87118 141.428 8.13233 144.64 9.19727 147.973L9.91406 147.727C10.9839 152.681 13.5514 157.105 15.4736 161.745C15.9198 161.8 15.6837 161.24 15.6016 161.013C14.3627 157.619 12.5171 154.462 11.3604 150.996C10.8822 149.565 10.1314 147.347 9.91406 145.916C9.83679 145.416 10.0929 145.455 10.2812 145.793C11.6456 148.234 12.7634 152.374 13.9805 155.142C17.4869 163.122 22.0416 170.971 26.584 178.299C26.98 178.939 27.2027 179.945 27.7871 180.481C28.2048 180.866 27.9152 179.998 28.1494 180.116C28.8738 181.027 29.5375 181.994 30.0977 183.017C30.3198 183.42 29.9653 183.177 30.6484 184.136C31.7013 185.615 31.5032 185.804 32.0176 187.114C32.3199 187.888 34.8966 190.519 35.6162 191.498C44.1746 203.153 51.5063 211.966 61.7285 222.163C62.6846 223.115 63.4911 224.449 64.6162 225.314C65.6908 224.065 63.3562 223.669 63.6484 222.658C65.2808 223.891 66.5968 225.523 68.1133 226.891C72.2257 230.601 76.4395 233.639 80.8369 236.875C81.303 237.218 81.7841 237.536 82.3564 237.671L82.3516 238.487C83.885 238.751 84.8414 239.969 86.0029 240.89C88.1329 242.579 90.2436 244.429 92.4219 246.058C92.5381 246.147 92.9257 246.386 92.9814 246.345L93.5537 245.646L96.4932 247.554L95.8867 247.8L97.3359 248.521L96.8525 247.8L97.8193 248.037L92.2666 244.291C92.2304 244.11 92.5007 244.136 92.624 244.175C94.0971 244.639 96.5825 246.565 98.0918 247.406C100.381 248.682 102.75 249.828 105.057 251.07L105.189 251.662L99.1445 248.525C98.425 248.479 98.9634 248.799 99.1855 248.968C99.8521 249.473 100.997 250.089 101.763 250.497C107.375 253.497 113.34 255.786 119.312 257.949L118.575 258.084C114.313 256.498 110.055 255.034 105.945 253.079C105.148 252.7 101.384 250.389 100.961 250.698C101.881 251.977 104.568 252.148 104.822 253.835C104.612 254.031 101.211 252.32 100.724 252.016C99.9584 251.537 101.434 251.822 100.719 251.29C100.202 251.208 99.8932 251.44 99.3164 251.269C97.329 250.676 94.5494 248.677 92.6465 247.773C92.4678 247.689 91.5116 247.29 91.543 247.788C101.721 253.301 112.289 258.099 123.175 262.053C123.23 262.505 122.69 262.233 122.441 262.187C121.137 261.942 119.632 261.386 118.353 260.958C116.356 260.291 114.139 259.465 112.186 258.672C111.024 258.201 109.193 256.982 108.077 256.738C107.476 256.605 107.87 256.988 107.964 257.215L106.998 256.973L107.479 256.496C106.65 256.187 105.776 255.875 104.979 255.493C102.384 254.248 99.6714 252.808 97.2783 251.604C95.2257 250.57 92.97 249.093 90.8184 248.518L90.8057 248.522L94.4258 250.695L90.084 248.639C89.4156 247.95 90.6137 248.471 90.8057 248.522C89.0501 246.869 86.8164 246.188 84.6045 245.424L74.2637 238.854C73.8774 239.096 74.3224 239.394 74.5107 239.575C75.233 240.267 76.913 241.49 77.7822 242.108C78.8255 242.853 80.3497 243.819 81.5547 244.609C93.011 252.112 105.807 258.005 118.515 262.967C119.751 263.45 121.147 263.94 122.441 264.235L121.961 264.714C123.403 265.255 124.95 265.62 126.385 266.169C126.568 266.239 126.532 266.403 126.547 266.408C124.588 265.966 122.746 265.234 120.751 264.961C121.106 265.966 122.047 265.531 122.745 265.741C125.124 266.457 127.397 267.627 129.928 267.856C129.819 267.528 128.956 267.201 128.645 267.088C127.908 266.82 127.201 266.658 126.549 266.406C129.816 267.143 133.168 267.638 136.447 268.342C136.503 268.774 135.906 268.574 135.636 268.55C134.542 268.448 133.18 267.842 132.227 267.847C131.746 267.852 131.838 267.871 131.859 268.338C132.953 268.589 134.042 268.836 135.15 269.036C139.466 269.819 144.013 270.467 148.413 270.264L156.297 270.99H0V0H270.99V270.99ZM160.611 270.508C161.543 270.752 162.625 270.651 163.569 270.44C163.997 270.346 164.367 270.365 164.231 269.787L160.611 270.508ZM111.345 261.33C112.226 262.236 113.736 262.856 114.968 263.018C114.132 262.068 112.526 261.714 111.345 261.33ZM100.235 250.446C100.058 249.917 98.1844 248.719 97.8213 249.001L98.666 250.207L99.1514 249.963L99.2725 250.69L99.5254 250.229L100.235 250.449V250.446ZM226.774 238.366C226.337 238.468 223.534 240.92 223.881 241.267C224.074 241.46 227.093 238.719 226.774 238.366ZM75.3652 234.26C75.5705 235.43 76.4281 235.683 77.1768 236.433L77.7754 235.944H77.7773L75.3652 234.26ZM250.312 200.894L250.44 201.626C251.508 198.832 253.307 196.325 254.062 193.41L250.312 200.894ZM22.4814 181.325C23.486 183.479 25.1475 185.658 26.8232 187.367C26.8616 186.896 26.4445 186.553 26.1934 186.188C25.0439 184.523 23.7662 182.889 22.4814 181.325ZM17.1689 169.965C17.7002 171.896 18.9803 174.067 20.3037 175.524C19.4174 173.62 18.4199 171.63 17.1689 169.965ZM6.09375 144.183L7.98535 149.66L6.53809 143.859L6.09375 144.183ZM0.986328 124.04C1.22541 127.825 1.75631 131.728 2.50488 135.45C2.87436 137.294 3.37699 139.738 3.95898 141.493C4.48056 143.071 5.10812 141.59 4.6084 140.613L3.93262 140.315C3.97346 138.735 2.36002 135.17 2.66895 133.867C2.71241 133.686 3.16463 133.708 3.17188 133.572C3.20809 132.891 2.24944 129.054 2.10938 127.87C1.96933 126.686 1.83188 125.18 1.9502 124.042V124.04H0.986328ZM2.91895 128.396C3.03232 129.582 2.80771 131.616 3.6377 132.501L3.61133 131.204L2.91895 128.396ZM0.0205078 123.317C-0.0301715 124.344 0.00285399 125.352 0.253906 126.353C0.35533 126.759 0.0129386 127.059 0.742188 126.94C0.58765 126.053 0.582296 125.113 0.432617 124.229C0.389163 123.975 0.370348 123.27 0.0205078 123.317ZM1.57031 103.72C1.29743 107.674 -0.243157 111.976 0.242188 115.957C0.295315 116.38 0.742733 116.274 0.836914 116.837C0.856265 116.951 0.991318 118.618 1.00098 118.831C1.08307 120.477 0.909058 122.152 0.986328 123.798C1.4524 123.873 1.63073 123.607 1.70801 123.193C1.90103 122.161 0.862913 117.997 1.22754 117.516C2.12588 117.315 1.56363 118.694 1.71094 119.206L2.09961 118.321C1.69149 114.73 2.08534 111.167 2.43066 107.606C2.07809 107.563 1.99824 108.237 1.97168 108.472C1.80023 109.999 1.89688 111.839 1.71094 113.289C1.66501 113.642 1.52449 114.04 1.22754 113.646L1.22559 113.644L1.48633 109.194L3.6377 96.9688L1.57031 103.72ZM252.851 68.2119C252.018 67.9631 252.196 68.5834 251.899 68.7891C251.81 68.8519 251.16 68.5428 251.239 69.3018C251.254 69.452 252.802 71.1293 252.606 71.9316L253.102 72.0742C252.846 70.9987 253.575 71.6435 253.826 71.1094C253.522 71.1094 253.22 71.0876 252.979 70.8701C252.652 70.5775 251.68 68.1491 252.614 68.9346C252.742 69.0447 252.68 69.8431 253.341 69.6572L252.848 68.2168L252.851 68.2119ZM246.101 59.9912C246.615 61.2795 247.18 62.9858 248.27 63.8584C247.678 62.546 247.062 61.0571 246.101 59.9912ZM245.13 58.3018V58.2998L245.128 58.2979L245.13 58.3018ZM242.913 54.8428C243.637 55.9829 243.898 57.5601 245.128 58.2979L242.43 53.3926L240.788 51.5342L242.913 54.8428ZM241.261 47.4277L240.785 47.5459L241.505 49.1201L240.421 47.9111C240.472 48.5251 239.808 48.6944 239.817 48.75C239.843 48.9014 241.336 50.8939 241.595 51.208C242.384 52.1627 243.76 53.4032 244.514 54.4424C245.144 55.3101 245.526 56.4605 246.337 57.0938C245.666 55.3898 244.468 53.685 243.449 52.1309C243.092 51.5845 241.896 50.2988 241.754 49.958C241.6 49.5908 241.916 49.4433 242.239 49.7139C242.908 50.2722 244.154 52.5952 244.654 53.4629L245.13 53.1055L241.264 47.4229L241.261 47.4277ZM227.263 33.6484C227.007 33.8418 229.964 36.4269 230.298 36.7637C232.517 38.9921 234.951 41.5761 237.045 44.0342C238.064 45.2281 238.801 46.7195 240.059 47.6621L237.407 43.9111L237.888 43.4326C236.357 42.1105 235.21 40.2174 233.792 38.8301C233.394 38.4412 232.84 38.3373 232.449 37.999C231.735 37.3803 231.645 36.3604 230.271 36.3096L230.404 35.5801C228.791 35.8967 228.82 33.5399 227.263 33.6484ZM39.6221 30.748C38.9797 30.9414 38.197 31.6275 37.6875 32.0723C35.8715 33.653 34.1447 35.391 32.377 37.0273L33.459 36.542L39.6221 30.748ZM50.5537 24.1641L50.0078 24.9443C51.5461 23.9896 53.3742 23.151 54.5938 21.8047L50.5537 24.1641ZM65.6543 15.0957C64.9103 14.7163 55.4295 19.9537 53.9443 20.5459L53.1475 21.3164C53.6763 21.3889 53.8962 20.8452 54.3574 20.6953C56.4922 20.0016 56.3765 20.1569 58.2891 18.9727C58.6223 18.7648 59.7648 18.7477 60.0908 18.373C60.1435 18.3123 59.8686 17.9306 60.2764 17.6963C60.9308 17.3217 60.0956 18.4257 60.75 18.1719C61.858 17.7393 61.3004 17.2438 61.3584 17.21C61.4439 17.1599 62.1023 17.4495 62.5703 17.3604C63.5991 17.1646 65.4929 15.7481 66.6689 15.5137L65.8066 15.499L65.6543 15.0957ZM61.8398 15.7578C59.3308 16.9881 56.3284 17.834 54.3555 19.8643L60.7969 16.7656L61.8398 15.7598V15.7578Z" fill="#FEFDFB"/>
<path d="M125.603 263.614C131.272 264.939 136.843 266.89 142.653 267.576C146.375 268.016 150.036 267.661 153.735 267.845C154.774 267.898 155.656 268.414 156.745 268.098V268.103L156.022 268.581L161.816 268.345L158.365 269.072C158.278 269.693 156.059 270.331 156.75 269.309L151.195 269.304L152.159 268.584L148.539 268.825L150.951 269.067L148.889 269.316C147.056 268.374 145.045 268.54 143.048 268.265C142.075 268.132 140.533 267.177 139.604 268.098L139.592 267.383C136.914 267.641 134.477 266.247 131.765 265.911L131.528 266.392C130.982 265.906 129.357 265.922 128.925 265.686C128.145 265.258 128.869 265.452 127.708 265.138C126.863 264.911 126.025 264.557 125.112 264.468L125.593 263.989C123.881 263.83 122.345 263.786 120.766 262.899L125.603 263.614Z" fill="#FEFDFB"/>
<path d="M144.301 266.187C144.549 266.172 147.204 266.763 147.688 266.887C148.024 266.971 148.44 266.885 148.533 267.368H144.791C144.455 267.368 143.465 266.861 142.982 266.883C143.021 266.612 144.161 266.196 144.301 266.187Z" fill="#FEFDFB"/>
<path d="M169.544 266.164C169.607 266.515 169.087 266.476 168.826 266.529C167.155 266.87 165.452 266.943 163.75 266.885C163.791 266.496 164.784 266.433 165.081 266.406C166.503 266.273 168.1 266.292 169.544 266.164Z" fill="#FEFDFB"/>
<path d="M135.255 265.677C135.096 264.744 135.923 265.43 136.365 265.418C136.776 265.406 137.319 265.094 137.611 265.253L137.614 265.256C138.841 265.92 138.397 265.413 139.686 265.454C140.222 265.471 141.502 265.817 142.069 265.993C142.32 266.073 142.799 266.056 142.741 266.401C140.138 267.114 137.802 266.022 135.255 265.677Z" fill="#FEFDFB"/>
<path d="M180.408 261.569C180.5 262.106 180.191 262.148 179.795 262.283C178.725 262.643 177.206 262.935 176.066 263.018C176.008 262.67 176.484 262.691 176.737 262.609C177.947 262.215 179.276 262.2 180.408 261.569Z" fill="#FEFDFB"/>
<path d="M188.38 259.388L187.658 259.873L189.104 259.755C188.107 261.043 185.765 261.966 184.161 262.061C183.898 262.077 183.245 262.217 183.311 261.813C184.185 261.613 185.002 261.185 185.806 260.806C185.971 260.728 187.123 260.388 186.808 260.115L182.104 261.567C182.166 261.212 182.54 261.091 182.83 260.968C184.53 260.25 186.646 259.94 188.264 258.913L188.38 259.388Z" fill="#FEFDFB"/>
<path d="M196.11 258.43L192.896 260.165L191.28 260.601C192.406 259.486 194.545 258.72 196.107 258.43H196.11Z" fill="#FEFDFB"/>
<path d="M201.771 253.343C202.041 253.12 203.979 251.856 203.963 252.868C203.54 253.257 202.565 253.287 202.21 253.671L202.208 253.666C200.066 255.979 198.402 256.472 195.605 257.799C195.156 258.011 192.155 259.513 192.002 259.388L192.485 258.667L191.763 258.906V258.428L200.213 253.932C201.893 254.094 201.097 253.901 201.771 253.343Z" fill="#FEFDFB"/>
<path d="M209.148 249.245C208.827 249.777 207.989 249.985 207.477 250.348C207.252 250.51 207.165 250.948 206.972 251.068C206.607 251.294 206.168 250.566 205.446 251.667C205.374 251.776 205.533 252.08 205.484 252.114C205.318 252.233 204.676 251.97 204.799 252.624L204.081 252.139C203.851 251.759 208.516 249.175 209.148 249.245Z" fill="#FEFDFB"/>
<path d="M219.895 242.233C220.165 242.004 220.286 241.647 220.739 241.753C218.59 245.373 214.756 247.302 211.324 249.484C211.093 249.236 212.993 247.594 213.243 247.421C214.03 246.882 214.845 246.761 215.548 246.343C217.13 245.405 218.472 243.43 219.895 242.233Z" fill="#FEFDFB"/>
<path d="M221.464 241.989C221.843 241.57 223.666 238.432 224.12 238.853C223.832 239.192 221.99 242.48 221.464 241.989Z" fill="#FEFDFB"/>
<path d="M231.848 225.798C231.51 226.607 230.824 227.792 230.262 228.438C230.02 228.713 229.887 229.032 229.436 228.938C229.2 228.695 231.386 225.989 231.848 225.798Z" fill="#FEFDFB"/>
<path d="M258.352 86.0322C260.168 91.0184 261.788 96.0455 263.314 101.126C263.491 101.711 264.156 101.97 263.725 102.77L263.723 102.768L257.448 84.1592L258.352 86.0322Z" fill="#FEFDFB"/>
<path d="M14.9883 69.6621C14.1189 72.3619 13.278 75.468 12.1406 78.0469C11.9765 78.4142 11.7901 78.9497 11.3701 79.085L11.8486 77.2734L14.9883 69.6621Z" fill="#FEFDFB"/>
<path d="M24.6484 54.917L17.166 68.207C18.0813 65.6571 19.4145 62.9446 20.7451 60.5518C21.5082 59.1814 22.515 57.4824 23.3867 56.1895C23.6473 55.8031 24.1058 54.8538 24.6484 54.917Z" fill="#FEFDFB"/>
<path d="M229.795 43.0752C232.21 45.5622 234.618 48.0874 236.914 50.6904C237.25 51.0698 237.417 51.5846 237.729 51.9326H237.73C238.088 52.3314 239.397 53.0934 239.578 53.5889L239.035 53.9443C238.369 54.3649 239.317 54.4902 239.588 54.7754C239.96 55.167 241.08 56.3659 241.3 56.7236C241.662 57.3134 241.541 57.2484 242.111 58.0605C242.913 59.2014 243.775 60.753 244.64 61.8164C244.867 62.0943 245.302 62.1085 245.374 62.1689C245.673 62.4251 244.787 62.2396 244.9 62.7568C245.029 63.3439 246.238 63.7621 245.854 64.8252L243.826 62.1445C240.204 56.3125 236.229 50.6692 231.732 45.4873C231.107 44.7672 229.697 43.8848 229.795 43.0752Z" fill="#FEFDFB"/>
<path d="M194.417 15.5234C195.41 15.608 196.33 16.0745 197.235 16.4443C201.152 18.0371 205.422 19.8591 209.068 22.0029C209.404 22.1987 212.452 24.0081 212.287 24.2168H212.282L211.918 24.4609C213.237 25.5462 214.922 26.5211 216.207 27.5967C216.591 27.9181 217.205 28.4013 217.504 28.6719C218.284 29.38 218.902 30.4288 219.769 31.1104L219.411 31.2285C217.554 29.8122 215.726 28.256 213.813 26.9219C208.506 23.2215 202.69 20.415 197.232 16.9297L194.417 15.5234Z" fill="#FEFDFB"/>
<path d="M114.728 3.67773C114.836 4.39541 114.576 4.09048 114.124 4.15332C104.423 5.49235 93.3825 7.96281 84.1094 11.0977C81.7525 11.8929 79.5449 13.22 77.0576 13.585C76.9031 12.9953 77.4561 12.9875 77.8545 12.8232C79.0064 12.3447 80.4874 12.0765 81.5234 11.6729C82.615 11.2473 84.3945 10.0363 85.4521 9.76074C90.4798 8.44834 96.3166 7.05934 101.883 5.92578C106.138 5.06049 110.449 4.41683 114.726 3.6748L114.728 3.67773Z" fill="#FEFDFB"/>
<path d="M129.338 2.9502C131.11 2.82451 133.05 3.4626 134.77 2.9502C134.842 3.75949 133.521 3.8541 132.956 3.91211C130.363 4.17556 126.723 4.28155 124.035 4.40723C122.54 4.47732 121.05 4.22585 119.558 4.39746C119.437 3.66562 119.746 4.01597 120.145 3.91211C122.835 3.21119 126.532 3.14596 129.338 2.9502Z" fill="#FEFDFB"/>
<path fill-rule="evenodd" clip-rule="evenodd" d="M138.142 1.49121C138.054 0.586955 139.263 1.27039 139.841 1.26074L139.597 1.73926H144.429L144.185 1.26074H147.085L146.36 1.9834C148.427 2.33628 150.695 2.20354 152.743 2.48633C153.207 2.55159 153.608 2.83118 154.028 2.8916C156.462 3.24205 158.964 3.52773 161.374 3.99902C161.69 4.06187 162.542 4.02817 162.54 4.40039C159.58 4.33749 156.665 3.67291 153.724 3.43848C151.42 3.25479 149.056 3.25701 146.957 3.41895C145.397 3.53975 144.277 2.95044 142.753 2.92383L142.608 2.20996L141.548 2.25586L141.4 2.9668L128.01 2.46387C128.124 1.95189 129.109 2.32415 129.541 2.22266C129.782 2.16699 129.498 1.48515 130.425 1.98047L130.179 1.50195H133.079L132.356 2.22266L135.977 1.97852L135.255 1.5C136.456 1.84002 137.247 0.548653 138.142 1.49121ZM138.143 1.49707L138.146 1.49512L138.142 1.49121L138.143 1.49707Z" fill="#FEFDFB"/>
<path d="M158.918 2.95215L158.106 3.16016L153.607 2.22754L158.918 2.95215Z" fill="#FEFDFB"/>
</svg>
