<svg width="16" height="22" viewBox="0 0 16 22" fill="none" xmlns="http://www.w3.org/2000/svg">
<path d="M1.85025 12.2657C1.88222 12.2778 2.01875 12.3121 2.02459 12.3191C2.03728 12.3347 2.01824 12.3825 2.03321 12.4088C2.06443 12.4637 2.26897 12.5519 2.31972 12.5882C2.37048 12.6245 2.41819 12.6958 2.47173 12.7373C2.49254 12.659 2.55065 12.6911 2.62272 12.6861L2.63668 12.7624L2.73819 12.7478L2.78818 12.8245C2.76128 12.8859 2.69708 12.8265 2.68794 12.8367C2.6075 12.9244 2.87142 13.1411 2.92852 13.2092C3.00566 13.0335 2.77067 13.0253 2.81432 12.8618C2.92674 12.8578 2.961 12.9707 3.01708 13.0231C3.35891 13.3412 3.71673 13.7401 4.0446 14.0778C4.16616 14.2028 4.28163 14.334 4.4113 14.4508C4.38034 14.3176 4.26589 14.2371 4.18748 14.1364C4.16108 14.1026 4.14307 14.0211 4.12886 14.0084C4.12378 14.004 4.06668 14.0276 4.03724 13.9985C4.0177 13.9791 4.01161 13.9252 3.98091 13.8919C3.93726 13.8444 3.85986 13.7903 3.82738 13.744C3.79489 13.6978 3.77611 13.5134 3.71445 13.6561C3.65278 13.546 3.3881 13.3859 3.34673 13.2957C3.34064 13.2825 3.34191 13.2537 3.35891 13.2589L3.47286 13.3332C3.4891 13.2724 3.41576 13.2689 3.38556 13.2326C3.26426 13.088 3.348 13.1923 3.25715 13.1372C3.24421 13.1292 3.04779 12.9605 3.03967 12.9488C3.0082 12.9041 3.03536 12.7639 2.94095 12.7873L2.95364 12.8613L2.62374 12.5388C2.59024 12.4851 2.68312 12.5291 2.69378 12.5385C2.74758 12.5865 2.78641 12.6804 2.86457 12.7127C2.8803 12.6051 2.65825 12.4896 2.63998 12.4595C2.6311 12.4448 2.6613 12.4095 2.64937 12.3897C2.61663 12.3355 2.43849 12.2311 2.38291 12.1794C2.21821 12.0261 2.07407 11.8546 1.90202 11.7073C1.94972 11.6481 1.93856 11.6804 1.97688 11.7077C2.05986 11.7666 2.25044 11.8514 2.31008 11.9297C2.33571 11.9632 2.30069 11.9978 2.31059 12.0124C2.40093 12.1474 2.7255 12.3755 2.85213 12.4893C3.14397 12.7512 3.34369 13.0087 3.60025 13.2962C3.75454 13.4689 4.26259 13.9662 4.33872 14.1397C4.36765 14.206 4.32477 14.2373 4.34025 14.2719C4.35573 14.3064 4.4651 14.3752 4.51256 14.3268L4.5387 14.3894L4.48743 14.4133C4.55341 14.5713 4.73917 14.5089 4.6907 14.7242C4.71507 14.7167 4.73765 14.6988 4.76557 14.7105C4.85591 14.7483 4.98254 15.04 5.05004 15.1292C5.29595 15.4548 5.51343 15.8086 5.79461 16.1136C5.81339 16.1339 5.83039 16.1608 5.83191 16.1889L5.86922 16.09C6.00498 16.1717 5.94687 16.213 5.96362 16.295C5.97047 16.3283 6.09685 16.4786 6.1103 16.4622L6.08467 16.3509L6.13542 16.3382C6.15395 16.4133 6.22576 16.543 6.31332 16.5614L6.26231 16.4741L6.31509 16.4481C6.33489 16.3365 6.14862 16.2681 6.11004 16.1769C6.18922 16.128 6.24531 16.3467 6.31255 16.2512L6.08467 15.9287C6.16638 15.9051 6.23262 16.0395 6.27931 16.0867C6.29276 16.1004 6.36762 16.1886 6.38919 16.164C6.35823 15.9754 6.39224 15.7709 6.3628 15.5818C6.35366 15.5229 6.27297 15.4761 6.32677 15.3944C6.39807 15.2855 6.39909 15.3362 6.4067 15.1667C6.45467 14.0959 6.33996 12.9843 6.38716 11.9041C6.44477 11.8439 6.45137 11.7555 6.46558 11.67C6.56455 11.7115 6.46507 11.8337 6.49045 11.9182L6.41482 11.8934L6.41482 11.9677L6.4907 11.9679C6.40163 12.0567 6.36991 12.1712 6.5176 12.2063L6.54095 13.3581L6.43995 13.2838L6.43995 13.5567L6.56658 13.3832C6.53739 13.4717 6.5714 13.5519 6.56785 13.6441C6.56607 13.6928 6.51253 13.8226 6.54729 13.8755C6.57191 13.9128 6.6592 13.917 6.61759 14.0534C6.75513 13.9774 6.59881 13.8576 6.59246 13.792C6.58612 13.7264 6.63865 13.6016 6.64449 13.5191C6.65134 13.4225 6.65032 13.166 6.64525 13.0723C6.64144 13.0002 6.53359 12.9339 6.64093 12.9351L6.64195 12.8869C6.58561 12.8921 6.59221 12.8725 6.58967 12.8263C6.56759 12.4411 6.67874 11.9662 6.64499 11.6069C6.62241 11.3663 6.63078 11.083 6.61733 10.8131C6.61327 10.7328 6.66961 10.6302 6.61733 10.5276L6.56709 10.584L6.51582 10.5895L6.54145 9.83275C6.57774 9.79696 6.58764 9.83449 6.59221 9.86928C6.60287 9.95054 6.58434 10.047 6.59221 10.1305C6.66479 10.0698 6.64525 9.8494 6.64347 9.74652C6.63992 9.53379 6.63383 9.291 6.61682 9.07778C6.60946 8.98658 6.53739 8.83474 6.54095 8.72763L6.61784 8.72689C6.60718 8.68489 6.59221 8.6491 6.59043 8.60462C6.57064 8.11655 6.61505 7.62525 6.56632 7.13817L6.51608 7.10064C6.51811 7.19309 6.49273 7.29523 6.49146 7.38593C6.4907 7.42967 6.52217 7.47713 6.51785 7.5077C6.51557 7.52435 6.43106 7.50994 6.49045 7.62201C6.43436 7.6076 6.44172 7.55517 6.43842 7.51168C6.41203 7.15184 6.48258 6.6419 6.49171 6.26988C6.49984 5.93315 6.53257 5.52758 6.49045 5.20079C6.48461 5.15581 6.50034 5.16004 6.43995 5.16377C6.42599 5.27236 6.43893 5.38668 6.43005 5.49403C6.36077 6.32679 6.45035 7.21421 6.3864 8.05964C6.38336 8.09865 6.38894 8.13195 6.33844 8.14364L6.35519 7.11655L6.31357 7.05094L6.27499 7.125C6.21155 7.07728 6.242 6.99428 6.23718 6.92694L6.32575 7.02634L6.33818 6.80268L6.26231 6.83996L6.26231 6.65382L6.32575 6.77733C6.40391 6.71868 6.34021 6.62549 6.33742 6.54299C6.33057 6.34045 6.34478 6.13618 6.33844 5.93365C6.30798 5.92669 6.27296 5.94383 6.26662 5.97316C6.25672 6.01789 6.30646 6.26888 6.30824 6.34319C6.309 6.37375 6.28946 6.40755 6.28895 6.44284C6.28819 6.49378 6.34351 6.61506 6.23744 6.60387C6.22982 6.19582 6.19125 5.78355 6.18516 5.37599C6.17755 4.86183 6.19912 4.3489 6.21282 3.83623L6.26231 3.77336C6.28591 3.87276 6.23744 3.97341 6.33818 4.03404C6.14456 4.11282 6.31915 4.31312 6.31179 4.43315C6.30849 4.48558 6.24277 4.50149 6.23667 4.55616C6.22906 4.62574 6.31509 4.75373 6.31103 4.83002C6.30824 4.88245 6.23667 4.91973 6.23845 4.97763C6.24073 5.05293 6.36534 5.12028 6.25977 5.25149L6.31306 5.29945C6.25368 5.44905 6.27677 5.68166 6.28794 5.84741C6.29124 5.89687 6.26763 5.91923 6.33844 5.90904L6.33742 5.32455C6.33691 5.2823 6.35645 5.24254 6.35772 5.20079C6.3732 4.66476 6.36686 4.12897 6.41711 3.58996C6.42218 3.53479 6.46431 3.46372 6.45872 3.4165C6.45136 3.35512 6.34503 3.28603 6.36381 3.20253C6.17323 3.32281 6.33311 3.11829 6.33818 3.06486C6.3425 3.01913 6.31103 2.9585 6.31281 2.89364C6.3189 2.67246 6.45568 2.30069 6.52902 2.08524C6.56886 1.96844 6.60261 1.791 6.64981 1.68216C6.68763 1.59443 6.79852 1.48981 6.81959 1.37724L6.69651 1.34369L6.60464 1.51416C6.53536 1.39612 6.69498 1.3412 6.71859 1.29672C6.78228 1.17694 6.74675 0.94309 6.94672 0.893637C6.97718 0.925943 6.79421 1.05194 6.85816 1.11705C6.93607 1.01913 7.05026 0.951291 7.13781 0.869531C7.20582 0.806162 7.25252 0.725148 7.31469 0.670227C7.48472 0.520873 7.63444 0.516649 7.78341 0.314859C7.80396 0.287026 7.8537 0.314114 7.83442 0.248259L7.75828 0.248259C7.71311 0.153577 7.97932 0.0168972 8.0118 0.0494519L8.02449 0.124005L8.2907 -1.44959e-06C8.33637 0.0385174 8.14072 0.128478 8.11331 0.124502C8.11356 0.278826 8.28587 0.0941834 8.35541 0.102633C8.37926 0.105615 8.38332 0.161281 8.39652 0.169482C8.42925 0.189611 8.74901 0.126241 8.79748 0.0745511L8.78098 0.148855C8.71221 0.148358 8.61476 0.165008 8.55766 0.201788C8.54878 0.207503 8.47138 0.350893 8.43585 0.36481C8.39297 0.38146 8.34526 0.370774 8.29704 0.3914C8.27039 0.402583 8.07093 0.557652 8.08793 0.57132C8.12498 0.581758 8.22802 0.505466 8.23994 0.57132C8.16178 0.588965 8.09225 0.598408 8.02449 0.645873C7.98972 0.670227 7.83086 0.885933 7.83467 0.906311C7.84228 0.94632 7.86538 0.939611 7.89786 0.919233C8.00089 0.854372 8.07727 0.662275 8.19858 0.61481C8.24223 0.583746 8.27445 0.660287 8.32597 0.645128C8.35668 0.636181 8.36505 0.578776 8.39347 0.560386C8.44702 0.525346 8.68404 0.465704 8.76677 0.429919C8.80001 0.415505 8.79595 0.372265 8.8127 0.372513C8.93477 0.374501 8.91269 0.357354 8.98958 0.348905C9.02308 0.345177 9.31923 0.330764 9.26771 0.397861L9.17864 0.471917L9.5593 0.558646C9.61716 0.584243 9.44129 0.678428 9.43241 0.68141C9.40602 0.690853 9.36161 0.664014 9.35603 0.670227C9.34461 0.683646 9.37252 0.825296 9.25452 0.820078L9.26619 0.870028C9.36694 0.901589 9.36846 0.955267 9.43241 1.01093L9.40653 1.41551L9.5329 1.36605L9.53367 1.42818C9.35806 1.46247 9.36592 1.66128 9.32278 1.79324C9.3035 1.85263 9.24386 1.89885 9.23726 1.97763C9.22686 2.10164 9.30654 2.11431 9.30502 2.12301C9.29132 2.19632 9.03526 2.34965 9.21594 2.40904C9.32963 2.36406 9.4116 1.96421 9.46972 1.96247C9.5593 1.95999 9.4078 2.2664 9.4319 2.30939C9.5324 2.31411 9.5022 2.10611 9.57122 2.26044L9.63061 2.25522L9.68593 2.13568L9.78617 2.22266C9.63264 2.38519 9.57757 2.68042 9.54026 2.89985C9.50677 3.09667 9.54026 3.30368 9.5225 3.50944C9.51539 3.59294 9.44028 3.68613 9.52047 3.74975L9.55803 3.7003C9.59736 3.83201 9.49865 3.81411 9.48266 3.89836L9.5329 3.91103C9.49535 3.94383 9.46134 3.94185 9.44282 3.99602C9.41211 4.08548 9.37354 4.6158 9.39587 4.69408C9.40323 4.71968 9.45627 4.72937 9.45855 4.80442C9.46007 4.85387 9.44129 4.92321 9.3809 4.91749L9.3809 4.9416C9.45043 4.92346 9.44485 5.02882 9.42784 5.07579C9.41516 5.11108 9.36491 5.11083 9.35983 5.11903C9.34968 5.13543 9.34105 5.44781 9.34334 5.50025C9.34917 5.62872 9.34156 5.583 9.32811 5.6988C9.31898 5.77584 9.35628 5.83747 9.35654 5.89935C9.35704 6.13195 9.28472 6.41004 9.31441 6.63842C9.31771 6.66302 9.35755 6.68787 9.35324 6.71446C9.34867 6.74329 9.2766 6.76342 9.27685 6.84194C9.27685 6.93215 9.33801 6.91376 9.3507 6.9334C9.39891 7.0082 9.19311 7.19632 9.3304 7.23906L9.2535 7.28901C9.23752 7.37723 9.33192 7.35114 9.33268 7.41202C9.33395 7.49751 9.26239 7.55641 9.25427 7.63618C9.3606 7.64687 9.3606 7.47713 9.3814 7.40034C9.4517 7.38494 9.43673 7.43514 9.43191 7.48707C9.42049 7.60661 9.32532 7.68936 9.36999 7.8238L9.25427 7.84741C9.2365 7.92768 9.32304 7.95502 9.3441 8.02037C9.35247 8.04597 9.34283 8.20974 9.3304 8.21968L9.26721 8.17047C9.20453 8.21744 9.23371 8.3002 9.2294 8.36878L9.30502 8.34393C9.31086 8.34965 9.33776 8.49826 9.28015 8.49279L9.2294 8.39364C9.20224 8.58076 9.22178 8.76565 9.2162 8.95179C9.21265 9.06834 9.18575 9.19458 9.1926 9.32505C9.19539 9.37823 9.2431 9.499 9.24462 9.5241C9.24691 9.56312 9.17737 9.62052 9.1794 9.67271C9.18118 9.71943 9.30096 9.82728 9.18093 9.83573L9.17813 9.87077L9.25477 9.94607L9.20909 9.96148L9.22762 10.0293L9.15352 10.0696C9.2398 10.1486 9.24767 10.2251 9.22863 10.3424C9.2228 10.3787 9.17331 10.42 9.17966 10.4284C9.18169 10.4309 9.21366 10.4252 9.22102 10.4369C9.23904 10.466 9.21011 10.5114 9.25427 10.5042C9.25427 10.3859 9.29309 10.2527 9.30197 10.1411C9.30451 10.1096 9.28599 10.0775 9.28802 10.0485C9.29309 9.97763 9.36897 9.92196 9.27964 9.84592L9.33014 9.81858L9.33014 9.74701C9.38724 9.71297 9.3842 10.0089 9.38318 10.0447C9.38039 10.1295 9.33826 10.2155 9.35603 10.3057C9.42226 10.3114 9.39815 10.3089 9.40577 10.2684C9.42734 10.1548 9.41668 10.0075 9.44459 9.9073C9.45703 9.86307 9.45221 9.8494 9.50778 9.85909C9.46921 9.99527 9.48672 10.1093 9.48367 10.2448C9.48241 10.3044 9.45145 10.3638 9.45475 10.4177C9.45957 10.496 9.58011 10.5885 9.45906 10.6446C9.48317 10.8268 9.41439 11.033 9.42962 11.212C9.43876 11.3188 9.55092 11.2689 9.55828 11.2739C9.56691 11.2796 9.56234 11.3907 9.63416 11.374L9.63416 11.4227L9.52047 11.5224L9.48215 11.3487C9.354 11.3449 9.44992 11.505 9.4451 11.5594C9.44206 11.5934 9.39181 11.6543 9.39308 11.7194C9.39384 11.7552 9.43114 11.7761 9.42658 11.8027C9.41795 11.8529 9.36643 11.8718 9.37937 11.9826C9.39105 12.084 9.50499 12.1735 9.50778 12.1854C9.52529 12.2649 9.46997 12.3574 9.48241 12.4413L9.43165 12.3171C9.38039 12.3313 9.37557 12.3981 9.36846 12.4406C9.33141 12.6551 9.32507 13.0795 9.32913 13.2992C9.3304 13.3653 9.38318 13.3767 9.38115 13.4346L9.3304 13.4225C9.38344 13.5089 9.3106 13.5987 9.31238 13.6754C9.31416 13.7607 9.43343 13.7751 9.42353 13.8904C9.41363 14.0057 9.30426 13.9282 9.28167 13.9963C9.26949 14.0333 9.30375 14.08 9.29817 14.1141C9.28573 14.1918 9.22737 14.324 9.23193 14.4167C9.23346 14.4468 9.34131 14.6623 9.38141 14.6884L9.33091 14.7008L9.38141 14.7748L9.32989 14.7878L9.38141 14.9988L9.30553 14.9988L9.32126 14.9165L9.26746 14.6019C9.19184 14.6561 9.25706 14.7326 9.253 14.8086C9.23879 15.0753 9.18575 15.3288 9.21036 15.6011C9.21544 15.6561 9.25528 15.706 9.2568 15.7811C9.25858 15.8646 9.18423 15.9761 9.29233 15.9918L9.3342 15.8961L9.43191 15.8926L9.40729 16.0308L9.34385 16.0166L9.35628 16.0663L9.2294 16.0417L9.2294 16.1906C9.29893 16.2087 9.29182 16.1372 9.30553 16.0914L9.40856 16.1573L9.37532 16.2858L9.30502 16.2903L9.32989 16.3745C9.23041 16.4061 9.23498 16.5243 9.33065 16.4515C9.53138 16.2985 9.45221 16.2659 9.47023 16.079C9.47099 16.0716 9.51108 15.9438 9.53367 15.9426L9.53367 16.2903C9.60726 16.2778 9.83413 15.9207 9.88869 15.9677C9.8486 16.0818 9.52555 16.339 9.53367 16.4267C9.54052 16.4535 9.56742 16.4416 9.58518 16.4274C9.60675 16.4103 9.79987 16.1749 9.82398 16.1397C9.86738 16.076 9.93589 15.8822 9.95163 15.8675C9.98284 15.8382 10.0387 15.8504 10.0788 15.8181C10.1161 15.7878 10.1615 15.6717 10.2054 15.6193C10.3556 15.4404 10.6094 15.2371 10.7774 15.0619C11.1093 14.7159 11.4255 14.3939 11.7663 14.0686C12.0044 13.8414 12.4536 13.3193 12.7061 13.1759C12.9091 13.0606 12.8588 13.0318 13.0068 12.8996C13.0969 12.8191 13.273 12.7731 13.2869 12.6156C13.2448 12.5753 13.1227 12.7497 13.0844 12.7025L13.9226 12.0067C14.0404 12.0293 13.9714 11.993 14.0229 11.9336C14.0394 11.9145 14.2467 11.7517 14.2634 11.7465C14.3051 11.7907 14.2132 11.8479 14.1845 11.8802C14.1343 11.9376 14.1107 11.9478 14.0815 11.9779C14.0219 12.0398 13.9703 12.126 13.8955 12.1809C13.8914 12.1993 13.9221 12.1978 13.933 12.1931C13.9663 12.1782 14.1021 12.0462 14.1515 12.0097C14.2787 11.916 14.4545 11.8176 14.5675 11.7219C14.64 11.6605 14.6603 11.5417 14.7317 11.6347C14.6606 11.6787 14.6101 11.7599 14.556 11.8094C14.4685 11.8897 14.3 11.9418 14.3134 12.0939C14.3911 12.0532 14.5002 11.9284 14.5675 11.8956C14.6436 11.8586 14.5375 11.995 14.6175 11.9697L14.8464 11.7468L14.8961 11.7965C14.9745 11.784 14.9661 11.6908 15.0017 11.6695C15.0372 11.6481 15.0951 11.6595 15.1301 11.6394C15.1588 11.623 15.2148 11.5074 15.2894 11.5231C15.3328 11.5619 14.7545 11.9786 14.7319 12.0323C14.7131 12.0768 14.7616 12.0775 14.7913 12.0656C14.8558 12.0395 14.9862 11.8951 15.0486 11.8459C15.0674 11.8419 15.0659 11.8718 15.0611 11.8827C15.0245 11.9625 14.7763 12.1009 14.7063 12.2058C14.6837 12.2393 14.686 12.2666 14.719 12.2671C14.7395 12.2674 14.8068 12.1978 14.836 12.1834C15.0618 12.0736 15.345 11.9369 15.5321 11.7468C15.5534 11.7251 15.5678 11.6767 15.5714 11.6744C15.5787 11.67 15.6214 11.7003 15.6521 11.6931C15.6932 11.6836 15.7374 11.5887 15.8221 11.622L15.464 11.9779C15.3176 12.0415 15.3123 12.123 15.2499 12.2159C15.1737 12.329 15.0925 12.4436 15.0108 12.5532C15.0392 12.5964 15.2691 12.4011 15.2638 12.5035C15.2633 12.5122 15.1516 12.6193 15.1359 12.627C15.1235 12.6329 14.8958 12.6434 15.0362 12.7018C14.9989 12.8295 14.8971 12.8101 14.84 12.8454C14.8146 12.8611 14.7778 12.9766 14.7319 13.0002C14.7933 13.0403 14.8413 12.9172 14.8826 12.9023C14.9364 12.8829 14.9938 12.9463 15.0489 12.8141L15.0994 12.8882L15.1628 12.8265L15.1245 12.789C15.4245 12.6491 15.6587 12.4018 15.9109 12.1933C15.9394 12.1697 15.952 12.1332 15.9995 12.1439L14.9979 13.0626L15.0235 13.1123L14.7317 13.3233L14.821 13.3116L15.6188 12.7649C15.6526 12.7955 15.2219 13.0989 15.1905 13.1272C15.159 13.1556 14.942 13.3812 14.9344 13.3981C14.9296 13.409 14.9281 13.4389 14.9469 13.4349C15.0075 13.4103 15.0971 13.291 15.1379 13.2734C15.1702 13.2594 15.209 13.2868 15.2562 13.2684C15.3064 13.2488 15.3635 13.169 15.4184 13.1493C15.4658 13.1324 15.5559 13.1516 15.6188 13.1123C15.5719 13.1849 15.4478 13.2028 15.4671 13.3106L15.5681 13.2734C15.4039 13.4463 15.1707 13.587 15.1882 13.8571L15.2892 13.8444L14.0977 14.9622L14.4322 14.7922C14.4807 14.7122 14.5573 14.7348 14.6144 14.6986C14.7408 14.618 14.871 14.4893 14.9979 14.4036C15.0166 14.3996 15.0151 14.4294 15.0103 14.4404C14.988 14.4893 14.7946 14.6526 14.7334 14.6802L14.7568 14.7758L14.6048 14.7763L14.6553 14.826L14.6428 14.8506C14.504 14.9804 14.3809 15.1275 14.2208 15.2331C14.1589 15.2738 14.1495 15.205 14.1513 15.3357C14.0302 15.4431 13.8663 15.5467 13.7503 15.6526C12.9109 16.4182 12.0983 17.2927 11.3342 18.1657C11.2926 18.2135 11.1471 18.3283 11.1312 18.3646C11.0956 18.4456 11.2207 18.3603 11.2448 18.3516C11.273 18.3586 11.2585 18.3847 11.2459 18.4023C11.1606 18.5199 10.8685 18.6198 10.7761 18.7617C10.8431 18.8044 10.8865 18.7164 10.9403 18.6866C10.9444 18.6844 11.0586 18.6558 11.017 18.6998C10.9284 18.7776 10.8271 18.8459 10.7381 18.9232C10.6767 18.9764 10.6833 19.0713 10.5734 19.0226L10.599 19.0967C10.4622 19.0865 10.4483 19.2465 10.3196 19.2212C10.3427 19.3827 10.4856 19.1498 10.548 19.1836C10.4571 19.2694 10.3561 19.371 10.2569 19.4456C10.2277 19.4674 10.1737 19.4662 10.1683 19.4714C10.1607 19.4791 10.1843 19.5149 10.1805 19.5308C10.1734 19.5616 10.0937 19.622 10.18 19.618L11.3489 18.4386L11.309 18.3022L11.3852 18.327C11.3974 18.3397 11.3212 18.4239 11.3971 18.4011C11.5329 18.3598 11.6016 18.1772 11.6704 18.1098C11.7128 18.0686 11.8765 17.9928 11.9303 17.9297L11.9427 17.9786C11.7983 17.9975 11.725 18.244 11.6529 18.3052C11.6232 18.3305 11.5836 18.2955 11.5679 18.3052C11.558 18.3114 11.5468 18.3564 11.526 18.3767C10.868 19.0164 10.2435 19.6946 9.60955 20.3506C9.50499 20.459 9.19108 20.7003 9.13601 20.792C9.10505 20.8434 9.08652 20.9858 9.02714 21.0457L9.1152 21.0328L9.12789 21.0825C9.07308 21.0736 9.06775 21.1461 9.03628 21.1551C9.0005 21.1653 8.93731 21.1277 8.88706 21.1302C8.72744 21.1377 8.68049 21.3551 8.60817 21.381L8.5701 21.3315L8.48179 21.4061L8.49448 21.3564C8.43484 21.3158 8.30999 21.4836 8.26608 21.5176C8.36302 21.5333 8.41479 21.4207 8.5196 21.4806C8.50539 21.5954 8.30237 21.6436 8.26608 21.6794C8.20188 21.7425 8.378 21.7323 8.40414 21.7025L8.42215 21.7483L8.49422 21.7656C8.41784 21.8934 8.34069 21.8062 8.22853 21.8534L8.24071 21.7786L8.11433 21.7786L8.19021 21.8404L8.06307 22.0017L7.93669 21.952L7.98744 21.878C7.79001 21.9008 7.82122 21.7729 7.69611 21.6836C7.64485 21.7299 7.54233 21.7483 7.58166 21.8278L7.46747 21.7537L7.45478 21.8283C7.41214 21.8134 7.335 21.8245 7.30023 21.8134C7.25785 21.7994 6.96221 21.5949 7.049 21.7783C7.00281 21.8109 6.85715 21.5691 6.87161 21.5552L7.049 21.6044L6.99698 21.4935L7.05001 21.4654C7.07539 21.3499 6.948 21.3288 6.89547 21.2701C6.7262 21.0813 6.61226 20.831 6.4133 20.6503C6.38183 20.6218 6.32803 20.6116 6.28743 20.5748C6.19125 20.4876 6.09888 20.3931 6.02173 20.2885L5.99661 20.3387C5.92657 20.3409 5.91337 20.2433 5.88165 20.2023C5.81821 20.1203 5.59286 19.9006 5.57763 19.8293C5.57459 19.8156 5.57154 19.7883 5.59058 19.7917C5.70579 19.828 5.81872 20.0574 5.89536 20.0895C5.92657 20.1024 5.94306 20.0837 5.93291 20.0527C5.77558 19.8651 5.63829 19.6628 5.49008 19.4682C5.22261 19.1175 4.89804 18.7378 4.67802 18.3521C4.64934 18.3017 4.54504 18.298 4.56255 18.2028C4.46663 18.2589 4.47424 18.1687 4.42551 18.1267C4.37121 18.08 4.30548 18.048 4.2598 17.9913L4.374 18.0534L4.38643 18.0166C4.27579 17.9153 4.20118 17.753 4.10779 17.6439C3.90478 17.4068 3.62639 17.1911 3.41018 16.9615C3.25005 16.7915 3.07114 16.5713 2.94172 16.4021C2.87345 16.3129 2.74961 16.2314 2.675 16.1419L2.61156 16.2659C2.5872 16.292 2.33216 15.916 2.30653 15.8822C2.25222 15.8106 2.09843 15.6702 2.06747 15.6193C2.04971 15.59 2.07839 15.5499 2.05276 15.5122C2.00911 15.4478 1.8609 15.3685 1.82411 15.3109C1.65104 15.0395 1.41148 14.8419 1.16709 14.6133C1.14552 14.5932 1.11939 14.5827 1.09147 14.5748L1.1138 14.5055L0.963824 14.4282C0.956211 14.3971 0.961033 14.3623 1.00138 14.3792C1.04782 14.3986 1.16786 14.5383 1.23663 14.5733C1.29322 14.6021 1.35412 14.5552 1.34423 14.6267C1.47796 14.6439 1.2516 14.4036 1.19146 14.4284L1.21557 14.3564C1.08563 14.3434 1.12294 14.2366 1.10314 14.2063C1.08944 14.1856 0.953927 14.088 0.912309 14.0442C0.800903 13.9274 0.687722 13.8064 0.583422 13.6839L1.05264 14.0062L0.963824 13.8698C1.04731 13.8375 1.15035 14.0417 1.21734 14.0693L1.2681 14.0318L0.989455 13.795L1.0397 13.7212L0.761061 13.4473L0.811308 13.3735C0.66945 13.2642 0.637221 13.0728 0.543072 12.9409C0.426591 12.7778 0.202258 12.6044 0.0596383 12.4582C0.037814 12.4359 0.015736 12.3961 2.16245e-06 12.3678C0.0218265 12.3469 0.406797 12.6844 0.457551 12.7035C0.498408 12.7189 0.539265 12.6829 0.554238 12.6926C0.559313 12.6958 0.58266 12.7584 0.621233 12.79C0.657523 12.8193 0.916877 13.0089 0.938193 12.9886C0.912055 12.8429 0.767913 12.7662 0.68493 12.6533C0.774003 12.6188 0.814353 12.8116 0.912816 12.753L0.481913 12.3305C0.511097 12.2082 0.644326 12.4165 0.667673 12.4344C0.736445 12.4871 0.871452 12.5487 0.940477 12.6021C1.0095 12.6556 0.948852 12.7281 1.11558 12.6662L1.09655 12.7244L1.41985 12.9637L1.39777 12.918L1.4706 12.8648C1.3559 12.8198 1.25363 12.7324 1.19196 12.6285C1.2214 12.5589 1.44041 12.7587 1.39447 12.6538C1.34017 12.5296 0.942 12.2806 0.836939 12.1568L0.849373 12.1198L1.00189 12.2435C1.03666 12.251 1.0496 12.2418 1.03919 12.207C1.02016 12.1434 0.919668 12.0736 0.875766 12.0189L0.786184 11.8713L0.861808 11.8959L0.836939 11.7967C0.945299 11.878 1.08411 11.9635 1.18283 12.0537C1.32875 12.1871 1.56171 12.5266 1.73732 12.591C1.84948 12.632 1.6858 12.4302 1.699 12.4175L1.82538 12.4175C1.81472 12.5353 1.91369 12.6161 1.99058 12.6906C2.03372 12.6421 1.86167 12.504 1.87638 12.4923L2.04134 12.5663C2.13117 12.5947 1.88247 12.368 1.87486 12.3561C1.84974 12.3159 1.85735 12.2803 1.85101 12.2686C1.82842 12.2599 1.80431 12.2709 1.76168 12.2453C1.73351 12.2284 1.3965 11.9331 1.39498 11.9085C1.39092 11.8375 1.49547 11.9133 1.50816 11.9215C1.61195 11.9896 1.79416 12.1645 1.85101 12.2686L1.85025 12.2657ZM9.27254 4.43862C9.30197 4.38419 9.24589 4.31859 9.2162 4.36903C9.14717 4.48534 9.17077 4.59195 9.15225 4.70353C9.1454 4.74503 9.10784 4.76814 9.102 4.82778C9.09617 4.88742 9.12966 5.00149 9.10835 5.07455C9.24564 5.1655 9.23346 5.11332 9.23955 5.26193C9.24082 5.29523 9.22483 5.31188 9.26746 5.33747C9.3304 5.33946 9.28852 4.85984 9.30527 4.79175L9.22965 4.8166L9.28116 4.68017C9.20706 4.666 9.21848 4.54771 9.22762 4.47937C9.23371 4.43315 9.26974 4.44508 9.27304 4.43862L9.27254 4.43862ZM9.17839 6.35611C9.14489 6.31312 9.13271 6.35959 9.12814 6.39289C9.11951 6.45551 9.12966 6.53504 9.12002 6.59766C9.10403 6.70029 9.06394 6.82529 9.05302 6.94359C9.04922 6.98509 9.07739 7.04398 9.07409 7.04846C9.068 7.05666 9.01674 7.05566 9.00354 7.0917C8.98298 7.14786 9.03222 7.22117 9.02638 7.28479C9.018 7.37549 8.88884 7.49527 8.96243 7.62375L9.04973 7.62276C9.11114 7.72564 9.02841 7.76963 9.00811 7.86481C8.97664 8.01242 8.95355 8.16873 8.97562 8.31709L8.89975 8.31759L8.92563 8.54075L9.00151 8.26789L9.05226 8.4416L9.12789 8.39189L9.15326 8.4662C9.16342 8.38021 9.21772 8.29522 9.12814 8.23036C9.23701 8.20576 9.13423 8.05889 9.12814 8.00522C9.12535 7.9821 9.12586 7.8156 9.12687 7.7823C9.12839 7.73608 9.22762 7.54895 9.20402 7.52286C9.08221 7.61456 8.9873 7.37947 9.12814 7.374L9.14083 7.49751L9.20047 7.40531C9.17864 7.37375 9.17737 7.23906 9.17331 7.23111C9.16874 7.22241 9.09896 7.21148 9.10276 7.13668L9.20123 7.03628C9.19209 6.94781 9.10835 6.88916 9.12789 6.79498C9.13195 6.77534 9.16951 6.77559 9.17864 6.76068C9.23269 6.67147 9.14844 6.47117 9.17864 6.35586L9.17839 6.35611ZM9.2799 12.7994C9.30172 12.6635 9.26391 12.4819 9.2799 12.34L9.25477 12.34C9.28015 12.3934 9.22914 12.4744 9.22914 12.5012L9.22914 12.8613C9.25122 12.8713 9.2766 12.8203 9.2799 12.7992L9.2799 12.7994ZM6.61708 14.575L6.64246 14.3019L6.51608 14.538L6.61708 14.575ZM13.7937 15.295C13.9945 15.1628 14.2434 15.0375 14.4254 14.8834C14.4545 14.8586 14.488 14.8452 14.4779 14.7985C14.2962 14.8944 14.1495 15.0452 13.9579 15.121L13.7937 15.2952L13.7937 15.295ZM13.1847 15.916C13.1334 15.9053 13.1169 15.9269 13.0821 15.952C12.8586 16.1131 12.6474 16.4259 12.4363 16.6111C12.3173 16.6006 12.5099 16.5171 12.4622 16.4625L12.1452 16.8345L12.3104 16.7351L12.3353 16.7848C12.3817 16.6424 12.5337 16.5847 12.6403 16.4876C12.6873 16.4448 12.889 16.2716 12.9004 16.2582C12.9147 16.241 12.9015 16.1884 12.9291 16.1498C12.9471 16.1247 13.2316 15.9577 13.1847 15.9157L13.1847 15.916ZM9.48266 16.4622C9.43546 16.452 9.42252 16.4876 9.39384 16.5117C9.37709 16.5258 9.24767 16.6513 9.24183 16.6603C9.22052 16.6936 9.24183 16.7301 9.26746 16.7353C9.31314 16.7445 9.51489 16.497 9.48241 16.4625L9.48266 16.4622ZM11.9673 17.0333C11.9607 17.0266 11.8369 17.1295 11.8199 17.1493C11.8085 17.1625 11.7318 17.2609 11.8029 17.2562C11.8181 17.2552 12.0412 17.0932 11.9673 17.0333ZM11.4606 17.5547L11.6768 17.3817L11.7392 17.2818C11.7204 17.2622 11.4253 17.5201 11.4606 17.5549L11.4606 17.5547ZM7.02261 21.0067L6.97211 21.0186C6.9485 21.1183 7.05813 21.1665 6.99774 21.2542C7.21598 21.211 7.09899 21.1205 7.02261 21.0067Z" fill="#06311D"/>
</svg>
