<svg width="40" height="35" viewBox="0 0 40 35" fill="none" xmlns="http://www.w3.org/2000/svg">
<path d="M5.09877 17.0195L2.41897 17.1559L2.26509 17.6031C1.78894 17.6437 0.430167 16.5404 0.267579 16.1078C0.247255 16.0498 0.0149861 14.9987 0.00337265 14.9174C-0.0430811 14.5226 0.401133 13.0738 0.671146 12.8125C1.44634 12.0605 3.30159 12.2522 4.22196 12.6644V12.9519L3.35095 12.6644L4.22196 13.4629L3.85323 13.669L3.93162 14.1132C3.47579 13.6806 2.25057 13.6342 1.97476 14.2642C1.95443 14.3106 1.91378 15.1294 1.9254 15.1729C1.95443 15.2775 3.40321 16.5346 3.53676 16.613C3.72548 16.7262 4.09421 16.8279 4.31777 16.8598C5.73171 17.0601 5.15103 15.9539 5.2991 15.1149C5.37169 14.7055 5.60686 14.72 5.65912 14.5748C5.74042 14.3542 6.01043 13.4948 5.95526 13.3322C5.50524 12.9461 4.8607 13.0303 4.431 12.5251C3.94033 11.9502 3.83291 11.0879 4.04776 10.3795C4.0884 10.2459 5.01167 8.59392 5.08716 8.51553C5.32523 8.26875 5.89429 8.17294 6.2485 7.93486C6.79434 7.56323 7.21532 6.88384 7.87148 6.50931C8.55958 6.11736 10.5513 5.15634 11.2684 4.97053C11.3468 4.9502 11.5036 4.92988 11.4833 5.04021L11.1087 5.53959C11.8636 5.25215 12.9262 5.07795 13.6259 4.72084C13.8437 4.61051 13.8031 4.18372 14.0847 4.39857C14.1079 4.41599 14.0731 4.6047 14.1253 4.63954C14.3024 4.75858 16.8109 4.29404 17.2929 4.31727L16.718 3.17335C16.538 2.95559 16.1635 3.28077 16.1228 2.42428C16.0938 1.79715 16.6687 0.754846 17.2174 0.47322C18.0884 0.0261024 19.5865 -0.0668052 20.5476 0.0406192C20.7885 0.0667495 20.9773 0.258371 21.1689 0.290308C22.1734 0.452897 23.6658 0.383216 23.9358 1.73618C24.2203 3.15593 23.6687 2.75236 22.9864 3.03108C22.7773 3.11818 22.6002 3.63788 22.2286 3.66111C22.1647 2.99624 22.3389 2.29943 21.5376 2.0991C21.0789 1.98587 19.2178 2.0062 18.7649 2.15717C17.6674 2.5259 18.5588 3.19948 18.4455 3.57111C18.3787 3.79467 17.8358 3.7337 18.0158 4.23888C19.0988 4.27953 20.1759 4.20694 21.2502 4.06178C21.4737 4.02984 21.6566 3.80628 22.0021 3.80047C22.6699 3.78596 22.8499 4.23888 22.9022 4.24469C23.1983 4.28243 23.6745 3.98919 24.0403 3.97758C25.463 3.93112 27.4576 4.48857 28.796 5.00246C29.2983 5.19699 31.6529 6.26543 31.8852 6.55867C31.9723 6.66609 31.9694 6.72416 31.952 6.85481L31.229 6.63706C33.0349 7.95228 35.1834 9.33138 35.8744 11.5728L34.4314 12.2376L34.4169 12.5889L34.7102 12.7312C34.565 12.9606 34.263 12.9664 34.0859 13.0941C33.9437 13.1958 33.9959 13.3758 33.9814 13.3845C33.935 13.4135 33.3253 12.8764 32.9681 13.0941L33.5488 12.5164C33.3107 12.406 32.9972 12.6615 32.8956 12.6615H28.1776C28.2531 12.9722 28.3983 12.8909 28.6131 12.8909C29.9603 12.8938 31.3045 12.8009 32.6778 12.9548L31.4439 13.2422C28.616 13.6313 25.3033 14.0551 22.5538 13.399C21.2647 13.0912 20.0859 13.4774 18.8143 13.5325C17.2087 13.6022 15.0573 13.5122 13.4459 13.3874C13.2514 13.3729 12.5633 13.3177 12.4994 13.0999H15.4754C15.5364 13.0999 16.1432 12.978 16.3464 12.9519C16.6019 12.917 16.5903 13.0245 16.5641 12.6644L8.36505 12.5135L8.1444 12.7341L8.43474 13.097L6.11205 13.2422C6.56497 16.523 5.97559 20.0738 6.25721 23.3343C6.28044 23.6014 6.31238 24.1008 6.69272 23.9846C6.6753 22.2194 6.71595 20.4484 6.69852 18.6802C6.69272 18.1228 6.51852 17.5914 6.54174 16.9382C6.55045 16.6479 6.71885 15.2804 6.91047 15.2775C7.63631 16.6246 7.11661 18.3463 7.12242 19.8532C7.12532 20.9768 7.43017 22.3094 7.28791 23.4795C7.24726 23.8046 6.9395 23.7088 6.86111 23.9266C6.77692 24.1705 6.78853 24.8847 7.05854 24.9979L7.27339 24.5653C7.30533 26.3625 7.31113 28.2294 7.92665 29.9365C8.43183 30.3575 7.82213 29.3878 8.07182 29.3559C8.32731 29.5823 8.53635 29.861 8.80346 30.0759C9.20993 30.404 10.8823 31.214 10.0345 31.4579C10.8271 32.0328 12.1685 32.2215 13.1498 32.265C13.3095 32.2708 13.835 32.3637 13.8089 32.1141C12.6417 32.0821 11.8201 31.8731 10.891 31.1792C10.7284 31.0601 10.5281 31.1792 10.6181 30.8046L21.3605 31.9631L20.9279 31.5305C22.7861 31.5392 24.65 31.5363 26.5053 31.3708C27.2398 31.3069 27.7392 31.246 28.5144 31.2024C29.9545 31.124 31.8823 29.9656 32.0362 28.4123C32.2249 26.5135 32.1871 24.5305 32.2452 22.5939C32.3033 20.6574 32.4281 19.2493 32.2539 17.3737C32.1988 16.7959 32.2655 15.2223 32.5036 14.7229C32.701 14.3077 33.4066 14.2787 33.1249 13.3845C33.6475 13.2712 33.3224 14.2293 33.5604 14.5458L33.9466 14.3339L33.8508 13.6748L34.1324 14.1974L34.5737 14.1103V15.1265L35.0092 14.4006L35.317 15.9801C36.3999 16.2472 38.6529 15.3878 37.6309 14.029C37.0387 13.2393 36.1996 14.1481 35.4476 13.9622C35.3837 12.1854 37.4306 11.8457 38.7923 12.5773C40.3891 13.4338 40.0291 16.2791 38.6297 17.2198C38.3132 17.4318 37.2942 17.8208 36.937 17.8527C36.5538 17.8847 35.4941 17.455 35.3199 17.9776C35.195 18.3492 35.5754 20.4048 35.5986 21C35.6538 22.3617 35.4825 23.6072 35.4389 24.9253C35.4157 25.6308 35.7205 26.3189 35.375 27.0303L35.1544 25.7238L34.9366 25.866C34.8466 27.788 34.4256 29.5968 33.5575 31.3098C33.7811 31.6002 33.7898 31.3563 33.8856 31.1966C34.2805 30.5346 34.6492 29.6607 34.8669 28.9175C35.137 28.8913 35.0063 29.3878 34.9744 29.5359C34.7334 30.6827 33.9843 31.7221 33.1249 32.477C32.7388 32.8167 31.9868 33.4293 31.5252 33.3451C31.7197 33.0257 32.4746 32.6918 32.3236 32.2563C31.6239 32.9183 30.5642 33.3625 29.6351 33.6325C28.2792 34.0274 26.6011 33.9722 25.4223 34.3555C25.251 34.4106 25.1087 34.5151 24.9926 34.6516L25.2829 34.8664L22.9051 35C20.3182 34.7561 17.6558 35.1103 15.0515 34.8664C14.1021 34.7764 12.9698 34.55 12.0756 34.2132C12.874 34.0448 13.6405 34.3206 14.4708 34.2858C14.6479 34.28 15.0108 34.3961 14.976 34.1435L9.9619 33.2638C9.32607 33.2115 8.96605 33.7138 8.31279 33.4844C7.12532 33.0693 5.69687 31.4724 5.22652 30.3198C4.28873 28.0203 4.34971 22.2833 4.521 19.6906C4.54133 19.4031 4.53842 18.7876 4.96231 18.898V21.0755H5.10748V17.0108L5.09877 17.0195ZM6.98596 10.7773H13.8089C13.8292 11.1169 13.8582 11.0327 13.594 11.0676C12.9669 11.1489 12.2149 11.0124 11.5617 11.0676C10.6703 11.1431 9.7848 11.4624 8.87605 11.3579L10.6848 11.6512C13.6056 11.4102 16.5525 11.3957 19.4182 11.1082C20.4459 11.0037 21.6915 11.4683 22.8441 11.0531C24.7545 10.3679 27.1846 11.0966 29.2722 10.6176L31.5223 10.9195C30.628 10.9195 30.0387 11.5321 29.1357 11.2099L28.0382 11.5031H32.4659C32.5472 11.5031 32.7998 11.3347 32.9391 11.3202L32.9769 10.7831C34.2166 10.7337 32.4484 9.79882 32.3933 9.32557C32.701 9.05556 33.6214 10.8034 34.1353 10.4143L32.3207 8.89007L32.0333 9.1804C31.3655 8.47489 30.6193 7.75776 29.6438 7.50226C29.5015 7.46452 29.1647 7.31644 29.1996 7.58355C30.2854 8.21358 31.5803 8.70715 32.2452 9.83656C32.3817 10.2721 31.2871 9.16879 31.2203 9.11943C28.015 6.78513 23.6251 5.96348 19.7637 5.5512L21.5028 5.26377C18.2278 4.92698 15.0718 5.26377 12.0668 6.63996C11.7649 6.94481 11.9797 6.88384 12.2294 6.80255C12.6098 6.68061 12.993 6.54415 13.3734 6.42221V6.70964C12.5691 6.96514 11.8201 7.34838 11.0245 7.6271C10.6239 7.76647 10.2987 7.68227 9.86029 7.91744C9.55253 8.08003 9.49737 8.40521 9.23897 8.59973C8.96605 8.80587 6.52432 10.3272 6.98596 10.7773Z" fill="#06311D"/>
<path d="M27.7461 29.3588L29.4039 28.0436L30.211 25.4421C30.3678 27.1087 29.6333 29.1439 27.7461 29.3588Z" fill="#06311D"/>
<path d="M35.8716 10.3418C35.3519 9.58116 34.1528 8.79145 33.6941 8.09174C33.5779 7.91173 33.5866 7.71721 33.7666 7.73172C33.9989 7.74914 36.0719 9.76988 35.8687 10.3418H35.8716Z" fill="#06311D"/>
</svg>
