<svg width="20" height="19" viewBox="0 0 20 19" fill="none" xmlns="http://www.w3.org/2000/svg">
<path d="M18.5966 0C18.1775 0.48161 17.5866 0.859133 17.1907 1.3614C15.9914 2.88305 14.7343 4.19488 13.5127 5.69837C13.2962 5.96437 13.0267 6.29232 12.8945 6.60789C13.6665 5.88671 14.3111 5.02015 15.0401 4.25106C16.1262 3.1061 17.3097 2.05779 18.4313 0.949177L18.6784 1.03013L16.6956 3.05405C16.851 3.0904 16.8923 2.96814 16.9849 2.88966C17.4444 2.50305 17.8519 1.97435 18.309 1.56957C18.5131 1.38866 18.8131 1.26061 18.9817 1.12679C19.014 1.10118 19.4553 0.438654 19.3818 0.864916C19.319 1.2284 18.8421 1.43409 18.5966 1.69101L19.009 1.60757C18.704 2.01731 18.1759 2.32875 17.8503 2.67983C17.7659 2.7707 17.656 2.82357 17.6874 2.97062C18.4164 2.43118 19.028 1.75131 19.7537 1.19535C19.819 1.14579 19.9124 0.972307 20 1.11109C17.699 3.19779 15.5947 5.49184 13.7202 7.96929C13.6954 8.20224 13.8235 8.0362 13.8863 7.96929C14.188 7.65124 14.4095 7.22415 14.7525 6.93502L14.793 7.05728C14.2987 7.66033 13.769 8.25181 13.321 8.8912C13.2168 9.03907 12.9664 9.31085 13.016 9.49507L14.5872 7.59589L14.6277 7.71815C13.2342 9.48351 11.9184 11.3232 10.7092 13.2191C9.86866 14.5367 8.28424 17.7923 7.09985 18.5333C5.55842 19.4982 3.80374 18.8679 2.72845 17.5478C2.17386 16.8696 0.0786655 13.1637 0.00841224 12.4219C-0.0701061 11.5975 0.409269 10.9523 1.10188 10.5591C2.4119 9.81642 2.16229 10.6491 2.80945 11.4818L2.56315 10.4905C3.32767 10.9416 3.54752 12.0849 3.95251 12.8597C4.36246 13.6437 4.82365 14.4095 5.28898 15.1612C5.51626 15.3058 5.84769 14.858 5.98572 14.697C7.13539 13.3562 8.2206 11.3976 9.30746 9.92133C11.7812 6.56328 14.8467 2.99292 18.0618 0.332088C18.2032 0.215609 18.4148 0.0264349 18.5966 0Z" fill="#BA7548"/>
</svg>
